<?xml version="1.0" standalone="no"?>
<!DOCTYPE svg PUBLIC "-//W3C//DTD SVG 20010904//EN"
 "http://www.w3.org/TR/2001/REC-SVG-20010904/DTD/svg10.dtd">
<svg version="1.0" xmlns="http://www.w3.org/2000/svg"
 width="100.000000pt" height="100.000000pt" viewBox="0 0 100.000000 100.000000"
 preserveAspectRatio="xMidYMid meet">

<g transform="translate(0.000000,100.000000) scale(0.100000,-0.100000)"
fill="#000000" stroke="none">
<path d="M393 946 c-125 -31 -251 -132 -306 -246 -132 -274 39 -601 340 -652
305 -51 576 220 525 525 -17 97 -54 170 -124 243 -114 120 -277 168 -435 130z
m171 -34 c3 -4 -11 -16 -30 -27 -33 -18 -35 -18 -68 0 -19 11 -33 23 -30 27 3
4 32 8 64 8 32 0 61 -4 64 -8z m-121 -60 c36 -24 37 -27 37 -83 l0 -58 -82
-61 c-45 -33 -88 -60 -96 -60 -7 0 -35 7 -62 16 -48 16 -49 17 -61 72 -6 32
-13 61 -16 65 -9 14 90 102 146 130 58 29 58 29 134 -21z m301 -11 c47 -32 99
-88 92 -99 -2 -4 -9 -33 -15 -64 -12 -55 -13 -57 -58 -72 -26 -9 -54 -16 -62
-16 -9 0 -53 28 -98 61 l-83 60 0 59 0 58 56 36 c54 34 58 34 90 21 19 -8 54
-27 78 -44z m-599 -191 c6 -35 4 -42 -22 -64 -21 -19 -29 -21 -31 -10 -5 19
27 114 38 114 4 0 11 -18 15 -40z m750 -10 c23 -69 18 -85 -18 -54 -26 22 -28
29 -22 64 4 22 11 40 15 40 5 0 16 -22 25 -50z m-311 -26 c42 -30 76 -61 76
-68 0 -6 -13 -50 -28 -96 l-29 -85 -103 0 -103 0 -29 85 c-15 46 -28 90 -28
96 0 12 145 124 160 124 4 0 42 -25 84 -56z m-321 -57 c31 -13 36 -22 65 -113
l31 -99 -32 -47 -32 -48 -62 0 c-51 0 -66 4 -83 22 -25 27 -56 108 -66 173
l-7 49 49 43 c53 47 67 49 137 20z m611 -21 l50 -44 -12 -63 c-6 -35 -24 -89
-40 -119 l-28 -55 -69 -3 -70 -3 -32 48 -33 48 33 100 32 100 50 17 c28 9 55
17 60 17 6 0 32 -19 59 -43z m-236 -260 c38 -52 38 -58 11 -125 -25 -60 -39
-66 -149 -66 -114 0 -124 5 -153 77 l-24 62 35 48 36 48 106 0 107 0 31 -44z
m-336 -108 c10 -23 16 -43 15 -45 -4 -4 -117 76 -117 83 0 2 19 4 43 4 40 0
43 -2 59 -42z m498 38 c0 -7 -113 -87 -117 -83 -4 5 22 69 33 80 8 7 84 10 84
3z"/>
</g>
</svg>
